<svg width="90" height="18" viewBox="0 0 90 18" fill="none" xmlns="http://www.w3.org/2000/svg">
<path fill-rule="evenodd" clip-rule="evenodd" d="M12.0744 0V5.56417H10.1477C9.42346 5.58152 8.90965 5.72419 8.60624 5.99219C8.09042 6.44779 7.70708 6.9772 7.70708 7.87545C7.70708 8.70953 8.12947 9.36776 8.60624 9.75871C8.87556 9.97955 9.38936 10.1365 10.1477 10.2295H12.0744V15.7081H8.04961C6.19421 15.8222 4.43871 15.2087 2.78311 13.8676C0.29972 11.856 0 9.03108 0 7.74704C0 6.463 0.556622 3.68092 2.78311 1.84046C4.26744 0.613486 6.02294 0 8.04961 0H12.0744ZM20.8091 0L25.519 7.87545L20.8091 15.7081H13.4446V10.1867H17.7691V5.47857H13.4446V0H20.8091Z" fill="#9CA4B6"/>
<path d="M35.982 14.7C37.1407 14.7 38.1441 14.5113 38.9923 14.1339C39.8405 13.7565 40.5462 13.1968 41.1095 12.4548L39.8229 11.0903C39.7524 11.0194 39.6788 10.9694 39.602 10.9403C39.5252 10.9113 39.4484 10.8968 39.3716 10.8968C39.2755 10.8968 39.1827 10.9177 39.0931 10.9597C39.0035 11.0016 38.9203 11.0548 38.8434 11.1194C38.6514 11.2871 38.461 11.4274 38.2721 11.5403C38.0833 11.6532 37.8848 11.7452 37.6768 11.8161C37.4687 11.8871 37.2431 11.9371 36.9998 11.9661C36.7566 11.9952 36.4877 12.0097 36.1933 12.0097C35.6812 12.0097 35.2011 11.9097 34.753 11.7097C34.3049 11.5097 33.9128 11.2177 33.5767 10.8339C33.2406 10.45 32.975 9.97742 32.7797 9.41613C32.5845 8.85484 32.4869 8.2129 32.4869 7.49032C32.4869 6.8 32.5845 6.17742 32.7797 5.62258C32.975 5.06774 33.247 4.59516 33.5959 4.20484C33.9448 3.81452 34.3625 3.51452 34.849 3.30484C35.3355 3.09516 35.8732 2.99032 36.4621 2.99032C36.8014 2.99032 37.0975 3.01613 37.3503 3.06774C37.6032 3.11935 37.824 3.18226 38.0129 3.25645C38.2017 3.33065 38.3649 3.41129 38.5026 3.49839C38.6402 3.58548 38.7666 3.66613 38.8818 3.74032C38.9971 3.81452 39.1059 3.87742 39.2083 3.92903C39.3107 3.98065 39.4196 4.00645 39.5348 4.00645C39.7076 4.00645 39.8421 3.96935 39.9381 3.89516C40.0341 3.82097 40.1173 3.73871 40.1877 3.64839L41.2824 2.16774C41.0199 1.89032 40.719 1.6371 40.3798 1.40806C40.0405 1.17903 39.6692 0.982258 39.2659 0.817742C38.8626 0.653226 38.429 0.524194 37.9649 0.430645C37.5008 0.337097 37.0062 0.290323 36.4813 0.290323C35.3995 0.290323 34.4105 0.467742 33.5143 0.822581C32.6181 1.17742 31.8483 1.67419 31.205 2.3129C30.5617 2.95161 30.0607 3.71129 29.7023 4.59194C29.3438 5.47258 29.1646 6.43871 29.1646 7.49032C29.1646 8.52258 29.3214 9.47903 29.6351 10.3597C29.9487 11.2403 30.3984 12.0016 30.9841 12.6435C31.5699 13.2855 32.2836 13.7887 33.1254 14.1532C33.9672 14.5177 34.9194 14.7 35.982 14.7ZM43.9384 3.50323C44.188 3.50323 44.4233 3.45645 44.6441 3.3629C44.865 3.26935 45.0586 3.14355 45.2251 2.98548C45.3915 2.82742 45.5227 2.64355 45.6188 2.43387C45.7148 2.22419 45.7628 2 45.7628 1.76129C45.7628 1.51613 45.7148 1.2871 45.6188 1.07419C45.5227 0.86129 45.3915 0.674194 45.2251 0.512903C45.0586 0.351613 44.865 0.225806 44.6441 0.135484C44.4233 0.0451613 44.188 0 43.9384 0C43.6951 0 43.4679 0.0451613 43.2566 0.135484C43.0454 0.225806 42.8582 0.351613 42.6949 0.512903C42.5317 0.674194 42.4037 0.86129 42.3108 1.07419C42.218 1.2871 42.1716 1.51613 42.1716 1.76129C42.1716 2 42.218 2.22419 42.3108 2.43387C42.4037 2.64355 42.5317 2.82742 42.6949 2.98548C42.8582 3.14355 43.0454 3.26935 43.2566 3.3629C43.4679 3.45645 43.6951 3.50323 43.9384 3.50323ZM45.4171 14.5452V4.50968H42.4405V14.5452H45.4171ZM51.9716 14.7C52.3109 14.7 52.6677 14.6758 53.0422 14.6274C53.4167 14.579 53.7912 14.4919 54.1657 14.3661C54.5401 14.2403 54.905 14.0661 55.2603 13.8435C55.6156 13.621 55.9468 13.3323 56.2541 12.9774L55.3899 11.9032C55.2683 11.729 55.0891 11.6419 54.8522 11.6419C54.673 11.6419 54.5017 11.6839 54.3385 11.7677C54.1753 11.8516 53.996 11.9452 53.8008 12.0484C53.6055 12.1516 53.3831 12.2452 53.1334 12.329C52.8838 12.4129 52.5861 12.4548 52.2404 12.4548C51.5939 12.4548 51.0658 12.2661 50.6561 11.8887C50.2464 11.5113 49.9936 10.9032 49.8975 10.0645H55.6396C55.774 10.0645 55.8844 10.0484 55.9708 10.0161C56.0573 9.98387 56.1261 9.92581 56.1773 9.84194C56.2285 9.75806 56.2637 9.64516 56.2829 9.50323C56.3021 9.36129 56.3117 9.17742 56.3117 8.95161C56.3117 8.22903 56.2013 7.58226 55.9804 7.01129C55.7596 6.44032 55.4523 5.95806 55.0586 5.56452C54.665 5.17097 54.1945 4.87097 53.6471 4.66452C53.0998 4.45806 52.4965 4.35484 51.8372 4.35484C51.0754 4.35484 50.392 4.4871 49.7871 4.75161C49.1822 5.01613 48.6669 5.37419 48.2412 5.82581C47.8155 6.27742 47.489 6.80323 47.2618 7.40323C47.0345 8.00323 46.9209 8.63871 46.9209 9.30968C46.9209 10.2 47.0537 10.9806 47.3194 11.6516C47.585 12.3226 47.9467 12.8839 48.4044 13.3355C48.8621 13.7871 49.3966 14.1274 50.008 14.3565C50.6193 14.5855 51.2738 14.7 51.9716 14.7ZM53.6423 8.32258H49.9263C50.0288 7.70968 50.24 7.24032 50.5601 6.91452C50.8801 6.58871 51.325 6.42581 51.8948 6.42581C52.2148 6.42581 52.4869 6.48064 52.7109 6.59032C52.935 6.7 53.1158 6.84355 53.2535 7.02097C53.3911 7.19839 53.4903 7.4 53.5511 7.62581C53.6119 7.85161 53.6423 8.08387 53.6423 8.32258ZM60.7537 14.5452V8.39032C61.2018 7.55161 61.8164 7.13226 62.5973 7.13226C62.8214 7.13226 63.007 7.14677 63.1542 7.17581C63.3015 7.20484 63.4295 7.21935 63.5383 7.21935C63.6664 7.21935 63.7688 7.19194 63.8456 7.1371C63.9224 7.08226 63.9736 6.9871 63.9992 6.85161L64.3833 4.64516C64.1081 4.42581 63.7432 4.31613 63.2887 4.31613C62.751 4.31613 62.2549 4.48065 61.8004 4.80968C61.3459 5.13871 60.9362 5.5871 60.5713 6.15484L60.4081 5.21613C60.3825 5.0871 60.352 4.97742 60.3168 4.8871C60.2816 4.79677 60.2304 4.72419 60.1632 4.66935C60.096 4.61452 60.0128 4.57419 59.9136 4.54839C59.8143 4.52258 59.6911 4.50968 59.5439 4.50968H57.7771V14.5452H60.7537ZM68.979 18C69.7727 18 70.4769 17.8984 71.0914 17.6952C71.7059 17.4919 72.2245 17.2226 72.647 16.8871C73.0694 16.5516 73.3895 16.1677 73.6072 15.7355C73.8248 15.3032 73.9336 14.8613 73.9336 14.4097C73.9336 13.9258 73.8456 13.5274 73.6696 13.2145C73.4935 12.9016 73.2615 12.6516 72.9734 12.4645C72.6854 12.2774 72.3557 12.1419 71.9844 12.0581C71.6131 11.9742 71.2354 11.9145 70.8514 11.879C70.4673 11.8435 70.0896 11.821 69.7183 11.8113C69.347 11.8016 69.0174 11.7823 68.7293 11.7532C68.4412 11.7242 68.2092 11.6726 68.0332 11.5984C67.8571 11.5242 67.7691 11.4032 67.7691 11.2355C67.7691 11.0677 67.8779 10.9194 68.0956 10.7903C68.3708 10.829 68.6653 10.8484 68.979 10.8484C69.5423 10.8484 70.0704 10.7726 70.5633 10.621C71.0562 10.4694 71.4835 10.2532 71.8452 9.97258C72.2069 9.69194 72.4917 9.35161 72.6998 8.95161C72.9078 8.55161 73.0118 8.1 73.0118 7.59677C73.0118 7.2871 72.967 6.9871 72.8774 6.69677L73.6072 6.53226C73.8312 6.48064 73.9896 6.40645 74.0825 6.30968C74.1753 6.2129 74.2217 6.08065 74.2217 5.9129V4.81936H71.2162C70.8962 4.66452 70.5489 4.54516 70.1744 4.46129C69.7999 4.37742 69.4015 4.33548 68.979 4.33548C68.3964 4.33548 67.8555 4.41129 67.3562 4.5629C66.8569 4.71452 66.4232 4.93064 66.0551 5.21129C65.6871 5.49194 65.3974 5.83387 65.1861 6.2371C64.9749 6.64032 64.8693 7.09355 64.8693 7.59677C64.8693 8.20323 65.0181 8.73548 65.3158 9.19355C65.6134 9.65161 66.0215 10.0194 66.54 10.2968C66.3096 10.4065 66.1111 10.5323 65.9447 10.6742C65.7783 10.8161 65.6406 10.9645 65.5318 11.1194C65.423 11.2742 65.343 11.4339 65.2918 11.5984C65.2406 11.7629 65.215 11.9194 65.215 12.0677C65.215 12.4226 65.2822 12.7161 65.4166 12.9484C65.551 13.1806 65.7303 13.371 65.9543 13.5194C65.487 13.6935 65.1189 13.9339 64.8501 14.2403C64.5812 14.5468 64.4468 14.9226 64.4468 15.3677C64.4468 15.7097 64.5364 16.0387 64.7156 16.3548C64.8949 16.671 65.1717 16.95 65.5462 17.1919C65.9207 17.4339 66.3912 17.629 66.9577 17.7774C67.5242 17.9258 68.198 18 68.979 18ZM68.979 9C68.7357 9 68.5261 8.96613 68.35 8.89839C68.174 8.83065 68.0284 8.7371 67.9131 8.61774C67.7979 8.49839 67.7131 8.35806 67.6587 8.19677C67.6043 8.03548 67.5771 7.85806 67.5771 7.66452C67.5771 7.25806 67.6875 6.93871 67.9083 6.70645C68.1292 6.47419 68.4861 6.35806 68.979 6.35806C69.4719 6.35806 69.8287 6.47419 70.0496 6.70645C70.2704 6.93871 70.3809 7.25806 70.3809 7.66452C70.3809 8.05806 70.2704 8.37903 70.0496 8.62742C69.8287 8.87581 69.4719 9 68.979 9ZM69.0366 15.9387C68.6397 15.9387 68.3116 15.9145 68.0524 15.8661C67.7931 15.8177 67.5867 15.7516 67.433 15.6677C67.2794 15.5839 67.1722 15.4839 67.1114 15.3677C67.0505 15.2516 67.0201 15.1226 67.0201 14.9806C67.0201 14.7806 67.0794 14.6016 67.1978 14.4435C67.3162 14.2855 67.4682 14.1419 67.6539 14.0129C67.9291 14.0452 68.2076 14.0661 68.4893 14.0758C68.7709 14.0855 69.043 14.0968 69.3054 14.1097C69.5679 14.1226 69.8127 14.1419 70.04 14.1677C70.2672 14.1935 70.4657 14.2355 70.6353 14.2935C70.805 14.3516 70.9394 14.429 71.0386 14.5258C71.1378 14.6226 71.1874 14.7516 71.1874 14.9129C71.1874 15.0613 71.1554 15.1984 71.0914 15.3242C71.0274 15.45 70.9138 15.5581 70.7505 15.6484C70.5873 15.7387 70.3681 15.8097 70.0928 15.8613C69.8175 15.9129 69.4655 15.9387 69.0366 15.9387ZM76.8585 3.50323C77.1082 3.50323 77.3434 3.45645 77.5643 3.3629C77.7851 3.26935 77.9788 3.14355 78.1452 2.98548C78.3116 2.82742 78.4429 2.64355 78.5389 2.43387C78.6349 2.22419 78.6829 2 78.6829 1.76129C78.6829 1.51613 78.6349 1.2871 78.5389 1.07419C78.4429 0.86129 78.3116 0.674194 78.1452 0.512903C77.9788 0.351613 77.7851 0.225806 77.5643 0.135484C77.3434 0.0451613 77.1082 0 76.8585 0C76.6153 0 76.388 0.0451613 76.1768 0.135484C75.9655 0.225806 75.7783 0.351613 75.615 0.512903C75.4518 0.674194 75.3238 0.86129 75.231 1.07419C75.1381 1.2871 75.0917 1.51613 75.0917 1.76129C75.0917 2 75.1381 2.22419 75.231 2.43387C75.3238 2.64355 75.4518 2.82742 75.615 2.98548C75.7783 3.14355 75.9655 3.26935 76.1768 3.3629C76.388 3.45645 76.6153 3.50323 76.8585 3.50323ZM78.3372 14.5452V4.50968H75.3606V14.5452H78.3372ZM84.9301 14.7C85.6855 14.7 86.3736 14.579 86.9946 14.3371C87.6155 14.0952 88.1484 13.75 88.5933 13.3016C89.0382 12.8532 89.3839 12.3081 89.6303 11.6661C89.8768 11.0242 90 10.3032 90 9.50323C90 8.70968 89.8768 7.99516 89.6303 7.35968C89.3839 6.72419 89.0382 6.18387 88.5933 5.73871C88.1484 5.29355 87.6155 4.95161 86.9946 4.7129C86.3736 4.47419 85.6855 4.35484 84.9301 4.35484C84.1683 4.35484 83.4754 4.47419 82.8513 4.7129C82.2271 4.95161 81.6894 5.29355 81.2381 5.73871C80.7868 6.18387 80.4379 6.72419 80.1915 7.35968C79.945 7.99516 79.8218 8.70968 79.8218 9.50323C79.8218 10.3032 79.945 11.0242 80.1915 11.6661C80.4379 12.3081 80.7868 12.8532 81.2381 13.3016C81.6894 13.75 82.2271 14.0952 82.8513 14.3371C83.4754 14.579 84.1683 14.7 84.9301 14.7ZM84.9301 12.4742C84.226 12.4742 83.7106 12.2306 83.3842 11.7435C83.0577 11.2565 82.8945 10.5161 82.8945 9.52258C82.8945 8.52903 83.0577 7.79032 83.3842 7.30645C83.7106 6.82258 84.226 6.58064 84.9301 6.58064C85.6151 6.58064 86.1192 6.82258 86.4424 7.30645C86.7657 7.79032 86.9273 8.52903 86.9273 9.52258C86.9273 10.5161 86.7657 11.2565 86.4424 11.7435C86.1192 12.2306 85.6151 12.4742 84.9301 12.4742Z" fill="#9CA4B6"/>
</svg>
