<svg width="40" height="40" viewBox="0 0 40 40" fill="none" xmlns="http://www.w3.org/2000/svg">
<path d="M22.5001 14.4445C22.5001 15.5556 21.7593 16.5741 21.3889 16.9445C24.0556 17.1667 25.2778 18.5185 25.5556 19.1667V24.1667C24.8889 25.5 23.426 26.0185 22.7778 26.1111V33.8889C22.7778 35 21.8519 35.2778 21.3889 35.2778H18.8889C17.7778 35.2778 17.3149 34.3519 17.2223 33.8889V26.1111C15.4445 25.8889 14.8149 24.7222 14.7223 24.1667V19.1667C15.3889 17.6111 17.7778 17.0371 18.8889 16.9445C18.0556 16.3889 17.7778 15.2778 17.7778 14.4445C17.7778 13.6111 18.3334 11.9445 20.0001 11.9445C21.6667 11.9445 22.5001 13.0556 22.5001 14.4445Z" stroke="#132137" stroke-width="1.55556" stroke-linejoin="round"/>
<path d="M20 26.6667V35.0001" stroke="#132137" stroke-width="1.55556" stroke-linecap="round"/>
<path d="M35.5555 14.4445C35.5555 15.5556 34.8148 16.5741 34.4444 16.9445C37.1111 17.1667 38.3333 18.5185 38.6111 19.1667V24.1667C37.9444 25.5 36.4814 26.0185 35.8333 26.1111V33.8889C35.8333 35 34.9074 35.2778 34.4444 35.2778H31.9444C30.8333 35.2778 30.3703 34.3519 30.2777 33.8889V26.1111C28.4999 25.8889 27.8703 24.7222 27.7777 24.1667V19.1667C28.4444 17.6111 30.8333 17.0371 31.9444 16.9445C31.1111 16.3889 30.8333 15.2778 30.8333 14.4445C30.8333 13.6111 31.3888 11.9445 33.0555 11.9445C34.7222 11.9445 35.5555 13.0556 35.5555 14.4445Z" stroke="#132137" stroke-width="1.55556" stroke-linejoin="round"/>
<path d="M33.0556 26.6667V35.0001" stroke="#132137" stroke-width="1.55556" stroke-linecap="round"/>
<path d="M9.44448 14.4445C9.44448 15.5556 8.70374 16.5741 8.33337 16.9445C11 17.1667 12.2223 18.5185 12.5 19.1667V24.1667C11.8334 25.5 10.3704 26.0185 9.72226 26.1111V33.8889C9.72226 35 8.79634 35.2778 8.33337 35.2778H5.83337C4.72226 35.2778 4.2593 34.3519 4.16671 33.8889V26.1111C2.38893 25.8889 1.7593 24.7222 1.66671 24.1667V19.1667C2.33337 17.6111 4.72226 17.0371 5.83337 16.9445C5.00004 16.3889 4.72226 15.2778 4.72226 14.4445C4.72226 13.6111 5.27782 11.9445 6.94448 11.9445C8.61115 11.9445 9.44448 13.0556 9.44448 14.4445Z" stroke="#132137" stroke-width="1.55556" stroke-linejoin="round"/>
<path d="M6.94439 26.6667V35.0001" stroke="#132137" stroke-width="1.55556" stroke-linecap="round"/>
<path d="M31.1618 9.44436C30.4865 8.93451 29.4473 8.45745 27.9569 8.33325C28.3273 7.96288 29.068 6.94436 29.068 5.83325C29.068 4.44436 28.2347 3.33325 26.568 3.33325C24.9013 3.33325 24.3458 4.99992 24.3458 5.83325C24.3458 6.66659 24.6236 7.7777 25.4569 8.33325C24.6656 8.3992 23.2261 8.70936 22.2223 9.44436" stroke="#132137" stroke-width="1.55556" stroke-linecap="round" stroke-linejoin="round"/>
<path d="M17.8284 9.44436C17.1531 8.93451 16.1139 8.45745 14.6235 8.33325C14.9939 7.96288 15.7346 6.94436 15.7346 5.83325C15.7346 4.44436 14.9013 3.33325 13.2346 3.33325C11.5679 3.33325 11.0124 4.99992 11.0124 5.83325C11.0124 6.66659 11.2901 7.7777 12.1235 8.33325C11.3322 8.3992 9.8927 8.70936 8.88886 9.44436" stroke="#132137" stroke-width="1.55556" stroke-linecap="round" stroke-linejoin="round"/>
</svg>
