<svg viewBox="0 0 240 138" fill="none" xmlns="http://www.w3.org/2000/svg">
<path fill-rule="evenodd" clip-rule="evenodd" d="M116.718 0V21.9885H109.172C106.335 22.057 104.323 22.6209 103.134 23.6799C101.114 25.4804 99.6127 27.5725 99.6127 31.1222C99.6127 34.4183 101.267 37.0195 103.134 38.5645C104.189 39.4372 106.202 40.0574 109.172 40.425H116.718V62.0752H100.954C93.6872 62.5263 86.8115 60.1019 80.327 54.8021C70.6003 46.8524 69.4264 35.689 69.4264 30.6148C69.4264 25.5405 71.6065 14.5462 80.327 7.27312C86.1406 2.42437 93.0164 0 100.954 0H116.718ZM150.929 0L169.377 31.1222L150.929 62.0752H122.085V40.2559H139.023V21.6502H122.085V0H150.929Z" fill="#F56222"/>
<path d="M26.8954 124.708C31.4663 124.708 35.4249 123.968 38.771 122.487C42.1172 121.006 44.9014 118.81 47.1237 115.899L42.0477 110.546C41.7699 110.267 41.4795 110.071 41.1764 109.957C40.8734 109.843 40.5704 109.786 40.2673 109.786C39.8885 109.786 39.5223 109.868 39.1688 110.033C38.8152 110.198 38.4869 110.406 38.1839 110.66C37.4262 111.318 36.6749 111.868 35.93 112.311C35.185 112.754 34.4021 113.115 33.5813 113.393C32.7606 113.672 31.8704 113.868 30.9107 113.982C29.9511 114.096 28.8904 114.153 27.7288 114.153C25.7084 114.153 23.8144 113.76 22.0466 112.976C20.2789 112.191 18.7321 111.046 17.4062 109.539C16.0804 108.033 15.0324 106.179 14.2621 103.977C13.4919 101.775 13.1068 99.256 13.1068 96.4209C13.1068 93.7124 13.4919 91.2697 14.2621 89.0928C15.0324 86.9159 16.1057 85.0617 17.482 83.5303C18.8583 81.9988 20.5061 80.8218 22.4254 79.9991C24.3447 79.1764 26.4661 78.7651 28.7894 78.7651C30.1279 78.7651 31.2959 78.8663 32.2934 79.0688C33.2909 79.2713 34.1622 79.5181 34.9072 79.8092C35.6522 80.1003 36.2961 80.4168 36.8391 80.7585C37.382 81.1002 37.8808 81.4166 38.3354 81.7077C38.79 81.9988 39.2193 82.2456 39.6233 82.4481C40.0274 82.6506 40.4567 82.7519 40.9113 82.7519C41.5931 82.7519 42.1235 82.6063 42.5023 82.3152C42.8811 82.0241 43.2094 81.7014 43.4872 81.347L47.8056 75.5377C46.7702 74.4492 45.5832 73.4557 44.2448 72.557C42.9063 71.6584 41.4416 70.8864 39.8506 70.2409C38.2596 69.5954 36.5487 69.0892 34.7178 68.7221C32.8869 68.3551 30.936 68.1716 28.8652 68.1716C24.5973 68.1716 20.6956 68.8677 17.16 70.2599C13.6245 71.6521 10.5877 73.6012 8.04967 76.1072C5.51166 78.6132 3.53554 81.5938 2.12133 85.049C0.707109 88.5043 0 92.2949 0 96.4209C0 100.471 0.61872 104.224 1.85616 107.679C3.0936 111.134 4.86768 114.121 7.17841 116.64C9.48914 119.158 12.3049 121.133 15.6258 122.563C18.9467 123.993 22.7032 124.708 26.8954 124.708ZM58.2838 80.7775C59.2687 80.7775 60.1968 80.5939 61.0681 80.2269C61.9393 79.8599 62.7032 79.3663 63.3598 78.7461C64.0164 78.1259 64.5341 77.4045 64.9129 76.5818C65.2918 75.7591 65.4812 74.8795 65.4812 73.9429C65.4812 72.981 65.2918 72.0824 64.9129 71.2471C64.5341 70.4118 64.0164 69.6777 63.3598 69.0449C62.7032 68.412 61.9393 67.9184 61.0681 67.564C60.1968 67.2097 59.2687 67.0325 58.2838 67.0325C57.3242 67.0325 56.4276 67.2097 55.5943 67.564C54.7609 67.9184 54.0222 68.412 53.3782 69.0449C52.7343 69.6777 52.2292 70.4118 51.863 71.2471C51.4968 72.0824 51.3137 72.981 51.3137 73.9429C51.3137 74.8795 51.4968 75.7591 51.863 76.5818C52.2292 77.4045 52.7343 78.1259 53.3782 78.7461C54.0222 79.3663 54.7609 79.8599 55.5943 80.2269C56.4276 80.5939 57.3242 80.7775 58.2838 80.7775ZM64.1175 124.101V84.7263H52.3744V124.101H64.1175ZM89.9753 124.708C91.3137 124.708 92.7216 124.613 94.199 124.424C95.6764 124.234 97.1537 123.892 98.6311 123.398C100.108 122.905 101.548 122.221 102.949 121.348C104.351 120.475 105.658 119.342 106.87 117.95L103.461 113.735C102.981 113.052 102.274 112.71 101.34 112.71C100.632 112.71 99.9569 112.874 99.3129 113.203C98.6689 113.533 97.9618 113.9 97.1916 114.305C96.4213 114.71 95.5438 115.077 94.5589 115.406C93.574 115.735 92.3997 115.899 91.0359 115.899C88.4853 115.899 86.4019 115.159 84.7856 113.678C83.1694 112.197 82.1718 109.812 81.793 106.521H104.446C104.976 106.521 105.412 106.458 105.753 106.331C106.094 106.204 106.365 105.977 106.567 105.648C106.769 105.318 106.908 104.875 106.984 104.319C107.06 103.762 107.097 103.04 107.097 102.154C107.097 99.3193 106.662 96.7816 105.791 94.5414C104.919 92.3012 103.707 90.4091 102.154 88.865C100.601 87.3209 98.7447 86.1438 96.5855 85.3338C94.4263 84.5238 92.0461 84.1188 89.445 84.1188C86.4398 84.1188 83.7439 84.6377 81.3574 85.6755C78.9709 86.7134 76.938 88.1182 75.2586 89.8902C73.5792 91.6621 72.2913 93.7251 71.3947 96.0792C70.4982 98.4333 70.05 100.927 70.05 103.559C70.05 107.052 70.574 110.115 71.622 112.748C72.6701 115.38 74.0969 117.583 75.9026 119.355C77.7082 121.126 79.8169 122.462 82.2287 123.36C84.6404 124.259 87.2226 124.708 89.9753 124.708ZM96.5666 99.6863H81.9067C82.3107 97.2816 83.1441 95.4401 84.4068 94.1617C85.6695 92.8834 87.4247 92.2443 89.6722 92.2443C90.9349 92.2443 92.0082 92.4594 92.8921 92.8898C93.776 93.3201 94.4894 93.8833 95.0324 94.5794C95.5753 95.2755 95.9668 96.0666 96.2067 96.9525C96.4466 97.8385 96.5666 98.7497 96.5666 99.6863ZM124.621 124.101V99.9521C126.389 96.6614 128.814 95.0161 131.895 95.0161C132.778 95.0161 133.511 95.073 134.092 95.1869C134.673 95.3008 135.178 95.3578 135.607 95.3578C136.112 95.3578 136.516 95.2502 136.819 95.035C137.122 94.8199 137.324 94.4465 137.425 93.9149L138.94 85.2579C137.855 84.3972 136.415 83.9669 134.622 83.9669C132.501 83.9669 130.544 84.6124 128.75 85.9034C126.957 87.1943 125.341 88.9536 123.902 91.1811L123.258 87.4981C123.157 86.9918 123.037 86.5615 122.898 86.2071C122.759 85.8527 122.557 85.568 122.292 85.3528C122.027 85.1376 121.698 84.9794 121.307 84.8782C120.915 84.7769 120.429 84.7263 119.848 84.7263H112.878V124.101H124.621ZM157.071 137.656C160.202 137.656 162.98 137.257 165.404 136.46C167.829 135.663 169.874 134.606 171.541 133.289C173.208 131.973 174.47 130.467 175.329 128.771C176.188 127.075 176.617 125.341 176.617 123.569C176.617 121.671 176.27 120.108 175.575 118.88C174.881 117.652 173.965 116.671 172.829 115.937C171.693 115.203 170.392 114.672 168.927 114.343C167.463 114.014 165.973 113.779 164.457 113.64C162.942 113.501 161.452 113.412 159.987 113.374C158.523 113.336 157.222 113.26 156.086 113.147C154.949 113.033 154.034 112.83 153.339 112.539C152.645 112.248 152.298 111.773 152.298 111.115C152.298 110.457 152.727 109.875 153.586 109.369C154.671 109.52 155.833 109.596 157.071 109.596C159.293 109.596 161.376 109.299 163.321 108.704C165.265 108.109 166.951 107.261 168.378 106.16C169.805 105.059 170.929 103.724 171.749 102.154C172.57 100.585 172.98 98.813 172.98 96.8386C172.98 95.6236 172.804 94.4465 172.45 93.3074L175.329 92.6619C176.213 92.4594 176.838 92.1683 177.204 91.7886C177.57 91.4089 177.753 90.89 177.753 90.2319V85.9413H165.897C164.634 85.3338 163.264 84.8655 161.787 84.5365C160.309 84.2074 158.737 84.0428 157.071 84.0428C154.772 84.0428 152.639 84.3403 150.669 84.9351C148.699 85.53 146.988 86.378 145.536 87.4791C144.084 88.5802 142.941 89.9218 142.108 91.5039C141.274 93.0859 140.858 94.8642 140.858 96.8386C140.858 99.218 141.445 101.306 142.619 103.104C143.793 104.901 145.403 106.344 147.449 107.432C146.54 107.862 145.757 108.356 145.1 108.913C144.444 109.47 143.901 110.052 143.471 110.66C143.042 111.267 142.726 111.894 142.524 112.539C142.322 113.185 142.221 113.798 142.221 114.381C142.221 115.773 142.486 116.925 143.017 117.836C143.547 118.747 144.254 119.494 145.138 120.076C143.295 120.759 141.842 121.702 140.782 122.905C139.721 124.107 139.191 125.582 139.191 127.328C139.191 128.67 139.544 129.961 140.251 131.201C140.959 132.441 142.051 133.536 143.528 134.485C145.006 135.435 146.862 136.2 149.097 136.783C151.332 137.365 153.99 137.656 157.071 137.656ZM157.071 102.344C156.111 102.344 155.284 102.211 154.589 101.946C153.895 101.68 153.32 101.313 152.866 100.844C152.411 100.376 152.077 99.8255 151.862 99.1927C151.647 98.5599 151.54 97.8638 151.54 97.1044C151.54 95.5097 151.976 94.2567 152.847 93.3454C153.718 92.4341 155.126 91.9785 157.071 91.9785C159.015 91.9785 160.423 92.4341 161.294 93.3454C162.166 94.2567 162.601 95.5097 162.601 97.1044C162.601 98.6485 162.166 99.9078 161.294 100.882C160.423 101.857 159.015 102.344 157.071 102.344ZM157.298 129.568C155.732 129.568 154.438 129.473 153.415 129.284C152.392 129.094 151.578 128.834 150.972 128.505C150.366 128.176 149.943 127.784 149.703 127.328C149.463 126.873 149.343 126.366 149.343 125.809C149.343 125.025 149.576 124.322 150.044 123.702C150.511 123.082 151.111 122.519 151.843 122.012C152.929 122.139 154.027 122.221 155.139 122.259C156.25 122.297 157.323 122.342 158.359 122.392C159.394 122.443 160.36 122.519 161.256 122.62C162.153 122.721 162.936 122.886 163.605 123.114C164.274 123.341 164.805 123.645 165.196 124.025C165.587 124.405 165.783 124.911 165.783 125.544C165.783 126.126 165.657 126.664 165.404 127.157C165.152 127.651 164.704 128.075 164.06 128.429C163.416 128.784 162.551 129.062 161.465 129.265C160.379 129.467 158.99 129.568 157.298 129.568ZM188.156 80.7775C189.141 80.7775 190.069 80.5939 190.94 80.2269C191.811 79.8599 192.575 79.3663 193.232 78.7461C193.889 78.1259 194.406 77.4045 194.785 76.5818C195.164 75.7591 195.353 74.8795 195.353 73.9429C195.353 72.981 195.164 72.0824 194.785 71.2471C194.406 70.4118 193.889 69.6777 193.232 69.0449C192.575 68.412 191.811 67.9184 190.94 67.564C190.069 67.2097 189.141 67.0325 188.156 67.0325C187.196 67.0325 186.3 67.2097 185.466 67.564C184.633 67.9184 183.894 68.412 183.25 69.0449C182.606 69.6777 182.101 70.4118 181.735 71.2471C181.369 72.0824 181.186 72.981 181.186 73.9429C181.186 74.8795 181.369 75.7591 181.735 76.5818C182.101 77.4045 182.606 78.1259 183.25 78.7461C183.894 79.3663 184.633 79.8599 185.466 80.2269C186.3 80.5939 187.196 80.7775 188.156 80.7775ZM193.99 124.101V84.7263H182.247V124.101H193.99ZM219.999 124.708C222.979 124.708 225.694 124.234 228.143 123.284C230.593 122.335 232.695 120.981 234.45 119.222C236.206 117.462 237.569 115.323 238.542 112.805C239.514 110.286 240 107.457 240 104.319C240 101.205 239.514 98.4017 238.542 95.9083C237.569 93.415 236.206 91.295 234.45 89.5484C232.695 87.8018 230.593 86.4602 228.143 85.5237C225.694 84.5871 222.979 84.1188 219.999 84.1188C216.994 84.1188 214.26 84.5871 211.798 85.5237C209.335 86.4602 207.214 87.8018 205.434 89.5484C203.653 91.295 202.277 93.415 201.305 95.9083C200.332 98.4017 199.846 101.205 199.846 104.319C199.846 107.457 200.332 110.286 201.305 112.805C202.277 115.323 203.653 117.462 205.434 119.222C207.214 120.981 209.335 122.335 211.798 123.284C214.26 124.234 216.994 124.708 219.999 124.708ZM219.999 115.975C217.221 115.975 215.188 115.02 213.9 113.109C212.612 111.197 211.968 108.293 211.968 104.395C211.968 100.496 212.612 97.598 213.9 95.6995C215.188 93.801 217.221 92.8518 219.999 92.8518C222.701 92.8518 224.69 93.801 225.965 95.6995C227.24 97.598 227.878 100.496 227.878 104.395C227.878 108.293 227.24 111.197 225.965 113.109C224.69 115.02 222.701 115.975 219.999 115.975Z" fill="#132137"/>
</svg>
