<svg width="40" height="40" viewBox="0 0 40 40" fill="none" xmlns="http://www.w3.org/2000/svg">
<path d="M9.66667 35.8889V14.0498L20 10.815L30.3333 14.0498V35.8889H9.66667Z" stroke="#132137" stroke-width="1.55556"/>
<path d="M24.7222 35.8334C24.7222 35.8334 24.7222 32.2222 24.7222 29.7222C24.1081 27.5601 22.2505 26.3889 20.1389 26.3889C18.0273 26.3889 16.1697 27.5601 15.5556 29.7222C15.5556 32.5 15.5556 35.8334 15.5556 35.8334" stroke="#132137" stroke-width="1.55556"/>
<path d="M20 10V3.33337" stroke="#132137" stroke-width="1.55556" stroke-linecap="round"/>
<path d="M1.88889 33.6666V20.539L9.22222 17.789V33.6666H1.88889Z" stroke="#132137" stroke-width="1.55556"/>
<path d="M38.1111 33.6666V20.539L30.7778 17.789V33.6666H38.1111Z" stroke="#132137" stroke-width="1.55556"/>
<path d="M23.3333 6.66663H16.6667" stroke="#132137" stroke-width="1.55556" stroke-linecap="round"/>
<circle cx="20" cy="18.8889" r="3.66667" stroke="#132137" stroke-width="1.55556"/>
</svg>
