<?xml version="1.0" encoding="utf-8"?>
<svg width="44" height="44" viewBox="0 0 44 44" fill="none" xmlns="http://www.w3.org/2000/svg">
  <g clip-path="url(#clip0)">
    <g clip-path="url(#clip1)">
      <path fill-rule="evenodd" clip-rule="evenodd" d="M38.2824 11.2957C38.4268 11.4391 38.5 11.6415 38.5 11.8439V38.9908C38.5 41.7569 36.4684 44.0002 33.9625 44.0002H12.2454C9.74669 44.0002 7.70791 41.7485 7.70791 38.9908V37.8607H5.5V25.3288H7.70894V6.8429C7.70894 4.07676 9.7405 1.8335 12.2464 1.8335H28.8269C29.0043 1.8335 29.1744 1.9094 29.2951 2.0359L38.2824 11.2957ZM28.6021 3.38523V7.78743C28.6021 9.803 30.1974 11.4475 32.164 11.4475H36.42L28.6021 3.38523ZM37.1305 38.9908V12.9571H32.164C29.4394 12.9571 27.2315 10.6379 27.2315 7.78743V3.34306H12.2475C10.4974 3.34306 9.07844 4.91166 9.07844 6.8429V25.3288H24.1522C27.0861 25.3288 29.4724 28.1371 29.4724 31.5947C29.4724 35.0524 27.0944 37.8607 24.1522 37.8607H9.07844V38.9908C9.07844 40.922 10.4974 42.4906 12.2464 42.4906H33.9625C35.7125 42.4906 37.1305 40.922 37.1305 38.9908ZM9.7405 34.7572H10.747V32.3622H12.0536C12.7136 32.3622 13.2385 32.1766 13.617 31.8224C13.9954 31.4682 14.1811 30.9875 14.1811 30.3972C14.1811 29.8069 13.9882 29.3346 13.617 28.972C13.2457 28.6093 12.7218 28.4322 12.0536 28.4322H9.73844V34.7572H9.7405ZM15.4062 34.7572H17.4058C18.171 34.7572 18.7918 34.5042 19.2754 34.0067C19.7508 33.5091 19.9932 32.8682 19.9932 32.0754V31.114C19.9932 30.3297 19.7591 29.6804 19.2754 29.1828C18.7918 28.6852 18.172 28.4322 17.4058 28.4322H15.4062V34.7572ZM24.805 31.2152V31.2068H22.363V29.2756H25.2247V28.4322H21.3555V34.7572H22.3713V32.0586H24.805V31.2152ZM12.8992 31.1984C12.7064 31.4092 12.4321 31.5104 12.0536 31.5188H10.747V29.284H12.0536C12.4321 29.284 12.7136 29.3936 12.8992 29.6045C13.0848 29.8153 13.1818 30.0852 13.1818 30.4056C13.1818 30.7261 13.0848 30.9875 12.8992 31.1984ZM17.4058 29.284C17.8894 29.284 18.2762 29.4527 18.5577 29.7984C18.8403 30.1442 18.9857 30.5827 18.9857 31.114V32.0839C18.9857 32.6236 18.8403 33.0621 18.5577 33.4079C18.2762 33.7537 17.8894 33.9223 17.4058 33.9223H16.4137V29.284H17.4058Z" fill="#9CA4B6"/>
    </g>
  </g>
  <defs>
    <clipPath id="clip0">
      <rect width="44" height="44" fill="white"/>
    </clipPath>
    <clipPath id="clip1">
      <rect width="33" height="42.1667" fill="white" transform="translate(5.5 1.8335)"/>
    </clipPath>
  </defs>
  <rect x="6.409" y="27.015" width="19.582" height="9.07" style="fill: rgb(156, 164, 182); fill-rule: evenodd;"/>
  <text style="white-space: pre; fill: rgb(255, 255, 255); font-family: Arial, sans-serif; font-size: 9px;" x="8.497" y="34.994">IMG</text>
</svg>