<svg width="44" height="44" viewBox="0 0 44 44" fill="none" xmlns="http://www.w3.org/2000/svg">
<g clip-path="url(#clip0)">
<path fill-rule="evenodd" clip-rule="evenodd" d="M11.4 28.1732C11.871 28.1732 12.238 28.3275 12.51 28.637C12.79 28.9365 12.925 29.3297 12.925 29.7996V30.6628C12.925 31.1407 12.781 31.5259 12.51 31.8344C12.238 32.1349 11.863 32.2892 11.4 32.2892H10.45V28.1732H11.4ZM17.442 32.2892C17.064 32.2892 16.77 32.148 16.554 31.8486C16.337 31.5571 16.225 31.176 16.225 30.7202V29.7351C16.225 29.2793 16.33 28.9052 16.547 28.6148C16.6476 28.4732 16.7812 28.3589 16.9361 28.2818C17.091 28.2048 17.2624 28.1675 17.435 28.1732C17.826 28.1732 18.134 28.3234 18.357 28.6148C18.588 28.9052 18.7 29.2793 18.7 29.7341V30.7202C18.7 31.1841 18.588 31.5571 18.364 31.8486C18.141 32.14 17.834 32.2892 17.442 32.2892ZM38.282 10.8843C38.3519 10.952 38.4073 11.0335 38.4448 11.1237C38.4823 11.2139 38.5011 11.3109 38.5 11.4086V37.3752C38.5 40.0211 36.469 42.1668 33.962 42.1668H12.247C9.747 42.1668 7.709 40.013 7.709 37.3752V36.2943H5.5V24.3072H7.709V6.6251C7.709 3.97923 9.739 1.8335 12.247 1.8335H28.827C29.005 1.8335 29.174 1.9061 29.295 2.0271L38.282 10.8843ZM28.602 3.31776V7.52856C28.602 9.4565 30.198 11.0295 32.164 11.0295H36.42L28.602 3.31776ZM37.13 37.3752V12.4734H32.164C29.44 12.4734 27.231 10.2551 27.231 7.52856V3.27743H12.247C10.497 3.27743 9.079 4.77783 9.079 6.6251V24.3072H24.152C27.086 24.3072 29.472 26.9934 29.472 30.3008C29.472 33.6081 27.094 36.2943 24.152 36.2943H9.08V37.3752C9.08 39.2225 10.499 40.7229 12.248 40.7229H33.963C35.712 40.7229 37.131 39.2225 37.131 37.3752H37.13ZM9.482 33.2451V33.2532H11.425C12.175 33.2532 12.779 33.0192 13.246 32.5594C13.714 32.0916 13.947 31.4946 13.947 30.7606V29.8652C13.947 29.1311 13.714 28.5342 13.247 28.0663C12.779 27.5984 12.167 27.3645 11.425 27.3645H9.482V33.2451ZM15.076 30.8332C15.076 31.5511 15.294 32.148 15.736 32.624C16.18 33.0999 16.753 33.3338 17.454 33.3338C18.171 33.3338 18.76 33.0999 19.211 32.624C19.662 32.148 19.888 31.5511 19.888 30.8332V29.7764C19.888 29.0666 19.662 28.4696 19.211 27.9937C18.76 27.5178 18.171 27.2838 17.454 27.2838C16.753 27.2838 16.18 27.5178 15.737 27.9937C15.294 28.4616 15.076 29.0585 15.076 29.7764V30.8332ZM22.33 32.0674C22.097 31.7528 21.976 31.3494 21.976 30.8654V29.7361C21.976 29.2602 22.089 28.8568 22.322 28.5422C22.548 28.2276 22.871 28.0663 23.266 28.0663C23.676 28.0663 23.991 28.1712 24.201 28.3809C24.418 28.5906 24.523 28.8891 24.523 29.2844H25.474L25.482 29.2602C25.49 28.6471 25.297 28.1631 24.902 27.8082C24.499 27.4532 23.959 27.2758 23.266 27.2758C22.588 27.2758 22.04 27.5016 21.621 27.9695C21.202 28.4374 20.992 29.0262 20.992 29.7442V30.8574C20.992 31.5834 21.202 32.1722 21.629 32.632C22.049 33.0918 22.605 33.3258 23.289 33.3258C23.967 33.3258 24.499 33.1402 24.894 32.7772C25.289 32.4142 25.482 31.9302 25.474 31.3414L25.466 31.3172H24.523C24.523 31.7124 24.418 32.019 24.209 32.2287C24.007 32.4384 23.701 32.5433 23.298 32.5433C22.887 32.5433 22.564 32.382 22.33 32.0674Z" fill="#89909B"/>
</g>
<defs>
<clipPath id="clip0">
<rect width="33" height="40.3333" fill="white" transform="translate(5.5 1.8335)"/>
</clipPath>
</defs>
</svg>
