<svg width="32" height="32" viewBox="0 0 32 32" fill="none" xmlns="http://www.w3.org/2000/svg">
<path fill-rule="evenodd" clip-rule="evenodd" d="M5.65521 4.08333C8.72734 2.63889 11.3999 2.63889 13.6728 4.08333C15.9458 5.52778 16.7294 7.69444 16.0237 10.5833L29.8482 23.5833C31.3843 25.0278 31.3843 26.4722 29.8482 27.9167C28.3122 29.3611 26.7761 29.3611 25.2401 27.9167L12.5675 16C10.3785 17.5997 8.45839 18.3219 6.80726 18.1667C5.15613 18.0114 3.60449 17.2892 2.15234 16L10.2634 8.41667L5.65521 4.08333Z" stroke="#132137" stroke-width="2" stroke-linecap="round" stroke-linejoin="round"/>
<path fill-rule="evenodd" clip-rule="evenodd" d="M6.80697 11.6663L2.19877 7.33301C1.24182 8.97835 0.857802 10.4228 1.04672 11.6663C1.23564 12.9099 2.00367 13.9932 3.35082 14.9163L6.80697 11.6663Z" fill="#9CA4B6" stroke="#132137" stroke-width="2" stroke-linejoin="round"/>
<path d="M12.5186 10.5835L9.0625 13.8335" stroke="#132137" stroke-width="2" stroke-linecap="round" stroke-linejoin="round"/>
<path d="M14.8242 13.8335L25.1927 23.5835" stroke="#132137" stroke-width="2" stroke-linecap="round" stroke-linejoin="round"/>
<mask id="path-5-inside-1" fill="white">
<path d="M27.2087 26.4544C27.7814 26.4544 28.2456 26.0179 28.2456 25.4794C28.2456 24.9409 27.7814 24.5044 27.2087 24.5044C26.6361 24.5044 26.1719 24.9409 26.1719 25.4794C26.1719 26.0179 26.6361 26.4544 27.2087 26.4544Z"/>
</mask>
<path d="M27.2087 26.4544C27.7814 26.4544 28.2456 26.0179 28.2456 25.4794C28.2456 24.9409 27.7814 24.5044 27.2087 24.5044C26.6361 24.5044 26.1719 24.9409 26.1719 25.4794C26.1719 26.0179 26.6361 26.4544 27.2087 26.4544Z" fill="#132137"/>
<path d="M26.2456 25.4794C26.2456 24.7992 26.7944 24.4544 27.2087 24.4544V28.4544C28.7683 28.4544 30.2456 27.2365 30.2456 25.4794H26.2456ZM27.2087 24.4544C27.623 24.4544 28.1719 24.7992 28.1719 25.4794H24.1719C24.1719 27.2365 25.6492 28.4544 27.2087 28.4544V24.4544ZM28.1719 25.4794C28.1719 26.1596 27.623 26.5044 27.2087 26.5044V22.5044C25.6492 22.5044 24.1719 23.7223 24.1719 25.4794H28.1719ZM27.2087 26.5044C26.7944 26.5044 26.2456 26.1596 26.2456 25.4794H30.2456C30.2456 23.7223 28.7683 22.5044 27.2087 22.5044V26.5044Z" fill="#132137" mask="url(#path-5-inside-1)"/>
</svg>
