<svg width="32" height="32" viewBox="0 0 32 32" fill="none" xmlns="http://www.w3.org/2000/svg">
<path fill-rule="evenodd" clip-rule="evenodd" d="M19.3771 14.8809C20.5837 14.8809 21.1869 15.4857 21.1869 16.6954C20.282 18.2075 20.6547 19.0087 19.7498 20.2184L24.3541 20.778C24.0525 21.6853 23.6 22.1389 22.9967 22.1389C22.3935 22.1389 18.1706 22.1389 10.3281 22.1389V20.778C11.5347 19.2659 12.1479 18.0107 13.6561 17.4059C11.3938 17.4059 15.1543 16.6954 12.1379 16.6954C11.5347 16.6954 11.233 16.393 11.233 15.7881C11.233 15.1833 11.5347 14.8809 12.1379 14.8809H19.3771Z" fill="#DEE1E9"/>
<path fill-rule="evenodd" clip-rule="evenodd" d="M16.3802 22.7969C16.6301 23.8893 16.2787 24.9127 15.5928 25.6004C15.056 26.1386 14.3144 26.4713 13.4953 26.4713C12.6762 26.4713 11.9346 26.1386 11.3978 25.6004C10.7118 24.9127 10.3604 23.8893 10.6104 22.7969H16.3802ZM30.4866 23.5001C30.4866 24.3204 30.1549 25.0629 29.6187 25.6004C29.0819 26.1386 28.3403 26.4713 27.5213 26.4713C26.7022 26.4713 25.9606 26.1386 25.4238 25.6004C24.8876 25.0629 24.5559 24.3204 24.5559 23.5001C24.5559 22.6798 24.8876 21.9372 25.4238 21.3997C25.9606 20.8615 26.7022 20.5288 27.5213 20.5288C28.3403 20.5288 29.0819 20.8615 29.6187 21.3997C30.1549 21.9372 30.4866 22.6798 30.4866 23.5001ZM22.9967 22.8423H9.625V20.5355C10.6936 19.1495 11.8786 18.1086 13.1738 17.4045C12.8676 17.3966 12.5225 17.3988 12.1379 17.3988C11.6016 17.3988 11.2229 17.2275 10.9614 16.9654C10.7005 16.7038 10.5299 16.3249 10.5299 15.7884C10.5299 15.2519 10.7005 14.873 10.9614 14.6114C11.2229 14.3493 11.6016 14.178 12.1379 14.178H19.3771C20.2151 14.178 20.8201 14.4249 21.2323 14.8382C21.644 15.251 21.8901 15.8567 21.8901 16.6956C21.1424 18.1393 20.4944 19.1454 19.8465 20.0752H25.2509C25.0596 21.1494 24.7102 21.8705 24.2864 22.2955C23.9179 22.6649 23.4861 22.8423 22.9967 22.8423ZM29.0393 18.1646C29.5521 19.1631 29.1182 19.6686 28.8714 19.8693L25.6563 20.1272C24.8419 19.9403 24.2505 19.6288 23.8563 19.2335C23.4226 18.7987 23.1985 18.2572 23.1985 17.6029V11.5016H21.1587C20.7596 10.5928 20.7275 9.95179 20.8591 9.55597C20.9039 9.4211 20.981 9.27481 21.0974 9.1212L24.3937 8.72461C25.2399 8.91151 25.8528 9.2812 26.2611 9.79288C26.6524 10.2834 26.867 10.916 26.867 11.7057V14.6799L29.0393 18.1646ZM30.0318 11.0447V15.0885C28.8581 15.2221 28.0498 15.0277 27.5459 14.6498C27.0769 14.298 26.8111 13.7819 26.8111 13.0666C26.8111 12.3513 27.0769 11.8353 27.5459 11.4834C28.0498 11.1055 28.8581 10.9111 30.0318 11.0447Z" stroke="#132137" stroke-width="2" stroke-linejoin="round"/>
<path d="M16.9641 10.2539H10.3281" stroke="#132137" stroke-width="2" stroke-linecap="round"/>
<path d="M7.01004 15.1528H1.9375" stroke="#132137" stroke-width="2" stroke-linecap="round"/>
<path d="M5.81412 20.0522H3" stroke="#132137" stroke-width="2" stroke-linecap="round"/>
<path d="M7.58756 10.2539H4.77344" stroke="#132137" stroke-width="2" stroke-linecap="round"/>
</svg>
