<svg width="24" height="24" viewBox="0 0 24 24" fill="none" xmlns="http://www.w3.org/2000/svg">
<path fill-rule="evenodd" clip-rule="evenodd" d="M2.81991 5.48149C2.81991 4.82019 3.356 4.2841 4.0173 4.2841H17.054C17.7153 4.2841 18.2514 4.82019 18.2514 5.48149V9.00021C18.2514 9.36747 18.5492 9.66521 18.9164 9.66521C19.2837 9.66521 19.5814 9.36747 19.5814 9.00021V5.48149C19.5814 4.08565 18.4499 2.9541 17.054 2.9541H4.0173C2.62146 2.9541 1.48991 4.08565 1.48991 5.48149V18.5182C1.48991 19.9141 2.62146 21.0456 4.0173 21.0456H15.0001C15.3674 21.0456 15.6651 20.7479 15.6651 20.3806C15.6651 20.0133 15.3674 19.7156 15.0001 19.7156H4.0173C3.356 19.7156 2.81991 19.1795 2.81991 18.5182V5.48149ZM6.5448 8.92211C6.5448 8.41767 6.95373 8.00874 7.45817 8.00874C7.96261 8.00874 8.37154 8.41767 8.37154 8.92211C8.37154 9.42655 7.96261 9.83548 7.45817 9.83548C6.95373 9.83548 6.5448 9.42655 6.5448 8.92211ZM7.45817 6.67874C6.21919 6.67874 5.2148 7.68313 5.2148 8.92211C5.2148 10.1611 6.21919 11.1655 7.45817 11.1655C8.69715 11.1655 9.70154 10.1611 9.70154 8.92211C9.70154 7.68313 8.69715 6.67874 7.45817 6.67874Z" fill="#132137"/>
<path d="M4.01669 20.3808L14.2598 10.1377L17.2501 12.7502" stroke="#132137" stroke-width="1.33" stroke-linecap="round" stroke-linejoin="round"/>
<path fill-rule="evenodd" clip-rule="evenodd" d="M19.667 14.5002C19.667 14.132 19.3685 13.8335 19.0003 13.8335C18.6321 13.8335 18.3337 14.132 18.3337 14.5002V16.8335H16.0003C15.6321 16.8335 15.3337 17.132 15.3337 17.5002C15.3337 17.8684 15.6321 18.1668 16.0003 18.1668H18.3337V20.5002C18.3337 20.8684 18.6321 21.1668 19.0003 21.1668C19.3685 21.1668 19.667 20.8684 19.667 20.5002V18.1668H22.0003C22.3685 18.1668 22.667 17.8684 22.667 17.5002C22.667 17.132 22.3685 16.8335 22.0003 16.8335H19.667V14.5002Z" fill="#132137"/>
</svg>
