<svg width="32" height="32" viewBox="0 0 32 32" fill="none" xmlns="http://www.w3.org/2000/svg">
<path d="M24.3251 11.7599C23.3952 10.852 22.8178 9.58446 22.8178 8.18209C22.8178 7.70928 22.8835 7.25181 23.0061 6.81827H3.09187C2.53844 6.81827 2.0352 7.03549 1.66103 7.38508L15.5451 19.2857L24.3251 11.7599Z" fill="white"/>
<path d="M30.0911 12.6365C29.4091 12.9853 28.6364 13.1821 27.8178 13.1821C26.9863 13.1821 26.2022 12.9791 25.5124 12.62L20.0494 17.3717L30.0911 25.9051V12.6365Z" fill="white"/>
<path d="M29.4297 27.0306L19.1444 18.2147L15.5456 21.3637L11.9467 18.2147L1.65701 27.0345C2.03139 27.3835 2.53622 27.5974 3.09238 27.5974H27.9988C28.5522 27.5974 29.0555 27.3802 29.4297 27.0306Z" fill="white"/>
<path d="M1 8.64336V25.9055L11.0418 17.372L1 8.64336Z" fill="white"/>
<path d="M31 8.18179C31 9.93905 29.5755 11.3636 27.8182 11.3636C26.061 11.3636 24.6364 9.93905 24.6364 8.18179C24.6364 6.42454 26.061 5 27.8182 5C29.5755 5 31 6.42454 31 8.18179Z" fill="white"/>
</svg>
