<svg width="32" height="32" viewBox="0 0 32 32" fill="none" xmlns="http://www.w3.org/2000/svg">
<g clip-path="url(#clip0)">
<path fill-rule="evenodd" clip-rule="evenodd" d="M16.2186 29.7829H6.21431C4.98767 29.7829 4 28.7866 4 27.5576V2.07637C4 0.846958 4.99689 -0.148926 6.22663 -0.148926H17.303V6.50469C17.303 7.73676 18.2986 8.71975 19.5267 8.71975H25.0631V19.2493C24.2099 18.8935 23.2737 18.697 22.2916 18.697C18.312 18.697 15.0858 21.9232 15.0858 25.9028C15.0858 27.3314 15.5016 28.6629 16.2186 29.7829ZM18.4116 -0.148926V6.49934C18.4116 7.11338 18.9116 7.61117 19.51 7.61117H25.0631L18.4116 -0.148926ZM22.2921 32.0001C25.6595 32.0001 28.3893 29.2703 28.3893 25.9029C28.3893 22.5355 25.6595 19.8057 22.2921 19.8057C18.9247 19.8057 16.1948 22.5355 16.1948 25.9029C16.1948 29.2703 18.9247 32.0001 22.2921 32.0001ZM23.8423 22.9582C23.4261 22.9582 23.0888 23.2955 23.0888 23.7117V28.2326C23.0888 28.6488 23.4261 28.9861 23.8423 28.9861C24.2584 28.9861 24.5958 28.6488 24.5958 28.2326V23.7117C24.5958 23.2955 24.2584 22.9582 23.8423 22.9582ZM20.8285 22.9583C20.4123 22.9583 20.075 23.2957 20.075 23.7118V28.2328C20.075 28.6489 20.4123 28.9863 20.8285 28.9863C21.2446 28.9863 21.582 28.6489 21.582 28.2328V23.7118C21.582 23.2957 21.2446 22.9583 20.8285 22.9583ZM6.76286 8.89274C6.34672 8.89274 6.00937 9.23009 6.00937 9.64623C6.00937 10.0624 6.34672 10.3997 6.76286 10.3997H14.2978C14.7139 10.3997 15.0513 10.0624 15.0513 9.64623C15.0513 9.23009 14.7139 8.89274 14.2978 8.89274H6.76286ZM6.76326 11.9068C6.34711 11.9068 6.00977 12.2441 6.00977 12.6603C6.00977 13.0764 6.34711 13.4138 6.76326 13.4138H20.3261C20.7422 13.4138 21.0796 13.0764 21.0796 12.6603C21.0796 12.2441 20.7422 11.9068 20.3261 11.9068H6.76326ZM6.00977 15.6743C6.00977 15.2582 6.34711 14.9209 6.76326 14.9209H14.2982C14.7143 14.9209 15.0517 15.2582 15.0517 15.6743C15.0517 16.0905 14.7143 16.4278 14.2982 16.4278H6.76326C6.34711 16.4278 6.00977 16.0905 6.00977 15.6743Z" fill="white"/>
</g>
<defs>
<clipPath id="clip0">
<rect width="32" height="32" fill="white"/>
</clipPath>
</defs>
</svg>
