<svg width="32" height="32" viewBox="0 0 32 32" fill="none" xmlns="http://www.w3.org/2000/svg">
<path fill-rule="evenodd" clip-rule="evenodd" d="M6 28.5781C6 29.8014 6.98309 30.7931 8.20405 30.7931L24 31H24.5C25.8807 31 27 29.8807 27 28.5L26.9655 20.3083V9.82759H21.4548C20.2324 9.82759 19.2414 8.84915 19.2414 7.62278V1H8.21631C6.99228 1 6 1.99127 6 3.21498V28.5781ZM20.3448 7.61746V1L26.9655 8.72414H21.4381C20.8425 8.72414 20.3448 8.22866 20.3448 7.61746ZM8.75 10C8.33579 10 8 10.3358 8 10.75C8 11.1642 8.33579 11.5 8.75 11.5H16.25C16.6642 11.5 17 11.1642 17 10.75C17 10.3358 16.6642 10 16.25 10H8.75ZM8.75 13C8.33579 13 8 13.3358 8 13.75C8 14.1642 8.33579 14.5 8.75 14.5H22.25C22.6642 14.5 23 14.1642 23 13.75C23 13.3358 22.6642 13 22.25 13H8.75ZM8 16.75C8 16.3358 8.33579 16 8.75 16H16.25C16.6642 16 17 16.3358 17 16.75C17 17.1642 16.6642 17.5 16.25 17.5H8.75C8.33579 17.5 8 17.1642 8 16.75Z" fill="white"/>
</svg>
