<svg width="40" height="40" viewBox="0 0 40 40" fill="none" xmlns="http://www.w3.org/2000/svg">
<circle cx="20" cy="20" r="20" fill="#E2EDFB"/>
<mask id="mask0" mask-type="alpha" maskUnits="userSpaceOnUse" x="0" y="0" width="40" height="40">
<circle cx="20" cy="20" r="20" fill="#E2EDFB"/>
</mask>
<g mask="url(#mask0)">
<path d="M8.75 20.625C6.67812 20.625 5 22.3031 5 24.375C5 26.4422 6.67812 28.125 8.75 28.125C10.8219 28.125 12.5 26.4422 12.5 24.375C12.5 22.3031 10.8219 20.625 8.75 20.625ZM8.75 30C6.25156 30 1.25 31.2516 1.25 33.75V46.875H16.25V33.75C16.25 31.2516 11.2484 30 8.75 30Z" fill="#87B4EF"/>
<path d="M32.5 20.625C30.4281 20.625 28.75 22.3031 28.75 24.375C28.75 26.4422 30.4281 28.125 32.5 28.125C34.5719 28.125 36.25 26.4422 36.25 24.375C36.25 22.3031 34.5719 20.625 32.5 20.625ZM32.5 30C30.0016 30 25 31.2516 25 33.75V46.875H40V33.75C40 31.2516 34.9984 30 32.5 30Z" fill="#87B4EF"/>
<path d="M20 17.5C17.9281 17.5 16.25 19.1781 16.25 21.25C16.25 23.3172 17.9281 25 20 25C22.0719 25 23.75 23.3172 23.75 21.25C23.75 19.1781 22.0719 17.5 20 17.5ZM20 26.875C17.5016 26.875 12.5 28.1266 12.5 30.625V43.75H27.5V30.625C27.5 28.1266 22.4984 26.875 20 26.875Z" fill="#0A66E3"/>
</g>
<path d="M23.7003 6.92471C23.4865 6.71081 23.2326 6.54112 22.9532 6.42535C22.6738 6.30959 22.3744 6.25 22.0719 6.25C21.7695 6.25 21.47 6.30959 21.1907 6.42535C20.9113 6.54112 20.6574 6.71081 20.4436 6.92471L19.9999 7.36842L19.5562 6.92471C19.1243 6.49284 18.5386 6.25022 17.9278 6.25022C17.3171 6.25022 16.7313 6.49284 16.2995 6.92471C15.8676 7.35657 15.625 7.9423 15.625 8.55305C15.625 9.1638 15.8676 9.74953 16.2995 10.1814L16.7432 10.6251L19.9999 13.75L23.2566 10.6251L23.7003 10.1814C23.9142 9.9676 24.0839 9.71375 24.1996 9.43435C24.3154 9.15495 24.375 8.85548 24.375 8.55305C24.375 8.25062 24.3154 7.95115 24.1996 7.67176C24.0839 7.39236 23.9142 7.13851 23.7003 6.92471Z" fill="#F44336"/>
</svg>
